<svg x="0" y="0" width="1819" height="1286" viewBox="0 0 1819 1286" version="1.1" xmlns="http://www.w3.org/2000/svg" style="display: block;margin-left: auto;margin-right: auto;">
<defs>
<clipPath id="c_1"><path d="M0,0H1819V1286H0Z"/></clipPath>
<style>

.g0{fill:none;stroke:#000;stroke-width:1.1;stroke-linecap:round;stroke-linejoin:round;}
.g1{fill:#000;stroke:#000;stroke-width:0.152;stroke-linecap:round;stroke-miterlimit:10;}

</style>

</defs>
<path d="M0 0V1286H1819V0Z" fill="#FFFFFF" stroke="none"/>
<g clip-path="url(#c_1)">
<path d="M902.4 556V667.5m-39.4 0h78.8m-59 28.2H922M902.4 322.3V477.4M744.9 580.6l-2-1.8l-2.2-7v-5.3l2.2-7l2-1.6m18 0v20.9l-10.6-20.9v20.9m26.2-10.5l2.2-1.8l1.1-1.7v-3.4l-1.1-1.9l-2.2-1.6h-6.2v20.9h6.2l2.2-1.7l1.1-1.8v-3.5l-1.1-1.6l-2.2-1.9h-6.2m18.3 13.6l-.6-.2l-.5-.7l-.2-1.1l.2-1.1l.5-.8l.6-.1l.7 .1l.4 .8l.4 1.1l-.4 1.1l-.4 .7l-.7 .2m19.4-3.1V557.9h6.4l2.1 1.6l1.1 1.9v3.4l-1.1 1.7l-2.1 1.8H810m25.3 0l2-1.8l1.1-1.7v-3.4l-1.1-1.9l-2-1.6h-6.4v20.9h6.4l2-1.7l1.1-1.8v-3.5l-1.1-1.6l-2-1.9h-6.4m16.9 12.3l2-1.8l2.2-7v-5.3l-2.2-7l-2-1.6M863 556h78.8M863 556V477.4h78.8V556M619.2 322.3H751.5m161.4-.1c0-5.8-4.7-10.5-10.6-10.5c-5.8 0-10.5 4.7-10.5 10.5c0 5.8 4.7 10.5 10.5 10.5c5.9 0 10.6-4.7 10.6-10.5" class="g0"/>
<path d="M903 311.8l.5 .2H901Z" class="g1"/>
<path d="M903.5 312H901l3.8 .2Zm-2.5 0l3.8 .2h-4.6Z" class="g1"/>
<path d="M904.8 312.2h-4.6l5.5 .2Zm-4.6 0l5.5 .2h-6.8Z" class="g1"/>
<path d="M905.7 312.4h-6.8l7.9 .4Zm-6.8 0l7.9 .4h-8.6Z" class="g1"/>
<path d="M906.8 312.8h-8.6l9.4 .5Zm-8.6 0l9.4 .5H897.1Z" class="g1"/>
<path d="M907.6 313.3H897.1l11.4 .6Zm-10.5 0l11.4 .6H896.4Z" class="g1"/>
<path d="M908.5 313.9H896.4l12.8 .5Zm-12.1 0l12.8 .5H895.5Z" class="g1"/>
<path d="M909.2 314.4H895.5l14.4 .7Zm-13.7 0l14.4 .7h-15Z" class="g1"/>
<path d="M909.9 315.1h-15l15.8 .8Zm-15 0l15.8 .8H894.2Z" class="g1"/>
<path d="M910.7 315.9H894.2l17 .9Zm-16.5 0l17 .9H893.6Z" class="g1"/>
<path d="M911.2 316.8H893.6l18.2 .7Zm-17.6 0l18.2 .7H893.1Z" class="g1"/>
<path d="M911.8 317.5H893.1l19 1Zm-18.7 0l19 1H892.7Z" class="g1"/>
<path d="M912.1 318.5H892.7l19.8 .9Zm-19.4 0l19.8 .9H892.3Z" class="g1"/>
<path d="M912.5 319.4H892.3l20.4 1.1Zm-20.2 0l20.4 1.1H892.2Z" class="g1"/>
<path d="M912.7 320.5H892.2l20.7 .9Zm-20.5 0l20.7 .9H892Z" class="g1"/>
<path d="M912.9 321.4H892l20.9 .9Zm-20.9 0l20.9 .9H892Z" class="g1"/>
<path d="M912.9 322.3H892l20.9 1.1Zm-20.9 0l20.9 1.1H892Z" class="g1"/>
<path d="M912.9 323.4H892l20.7 .9Zm-20.9 0l20.7 .9H892.2Z" class="g1"/>
<path d="M912.7 324.3H892.2l20.3 1.1Zm-20.5 0l20.3 1.1H892.3Z" class="g1"/>
<path d="M912.5 325.4H892.3l19.8 .9Zm-20.2 0l19.8 .9H892.7Z" class="g1"/>
<path d="M912.1 326.3H892.7l19.1 .9Zm-19.4 0l19.1 .9H893.1Z" class="g1"/>
<path d="M911.8 327.2H893.1l18.1 .8Zm-18.7 0l18.1 .8H893.6Z" class="g1"/>
<path d="M911.2 328H893.6l17.1 .9Zm-17.6 0l17.1 .9H894.2Z" class="g1"/>
<path d="M910.7 328.9H894.2l15.7 .7Zm-16.5 0l15.7 .7h-15Z" class="g1"/>
<path d="M909.9 329.6h-15l14.3 .8Zm-15 0l14.3 .8H895.5Z" class="g1"/>
<path d="M909.2 330.4H895.5l13 .5Zm-13.7 0l13 .5H896.4Z" class="g1"/>
<path d="M908.5 330.9H896.4l11.2 .6Zm-12.1 0l11.2 .6H897.1Z" class="g1"/>
<path d="M907.6 331.5H897.1l9.7 .5Zm-10.5 0l9.7 .5h-8.6Z" class="g1"/>
<path d="M906.8 332h-8.6l7.5 .4Zm-8.6 0l7.5 .4h-6.8Z" class="g1"/>
<path d="M905.7 332.4h-6.8l5.9 .2Zm-6.8 0l5.9 .2h-4.6Z" class="g1"/>
<path d="M900.2 332.6l.8 .1h2.5Zm.8 .1h2.5l-.5 .2Z" class="g1"/>
<path d="M900.2 332.6h4.6l-1.3 .1Z" class="g1"/>
<path d="M737.4 283.6V250.1l-10.6 33.5l-10.5-33.5v33.5m58.9-11.2l-2.2 5.7l-2 2.8l-4.2 2.7h-4.3l-4.2-2.7l-2-2.8l-2.2-5.7V261.3l2.2-5.6l2-2.9l4.2-2.7h4.3l4.2 2.7l2 2.9l2.2 5.6M813 272.4l-2.2 5.7l-2.1 2.8l-4.2 2.7h-4.2l-4.2-2.7l-2-2.8l-2.2-5.7V261.3l2.2-5.6l2-2.9l4.2-2.7h4.2l4.2 2.7l2.1 2.9l2.2 5.6m31.5 5.6l4.2-2.9l2-2.7v-5.6l-2-2.9l-4.2-2.7H831.8v33.5h12.7l4.2-2.7l2-2.8v-5.7l-2-2.7l-4.2-2.8H831.8m37.8-16.8v33.5h10.5l4.2-2.7l2.2-2.8l2-5.7V261.3l-2-5.6l-2.2-2.9l-4.2-2.7H869.6m-13 72.2L751.5 374.9m-13.2-65.6l26.4 26.2m-26.4 0l26.4-26.2M991.3 948.7h128.4M899.5 1080h351.4M672.3 948.7H807.6m-541.9 0H568.8m301.5-56V859.1l-10.4 33.6l-10.5-33.6v33.6m58.7-11.2l-2 5.6l-2 2.8l-4.2 2.8h-4.3l-4.2-2.8l-2.2-2.8l-2-5.6V870.3l2-5.5l2.2-2.8l4.2-2.9h4.3l4.2 2.9l2 2.8l2 5.5m23.1 22.4h8.4m-4.2 0V859.1l-4.2 5.7M807.6 948.7h26.3m157.4 0H965.1m-55.7 0H889.8m-9.9 0h39.4m45.8 0V903.3m13.2 11l-59 34.4m-98.5 42l59.1-42m111.4 0c0-7.3-5.8-13.2-13.1-13.2c-7.2 0-13.1 5.9-13.1 13.2m-157.5 0c0 7.2 5.9 13.1 13.2 13.1c7.2 0 13.1-5.9 13.1-13.1m76 0c0-5.9-4.7-10.6-10.5-10.6c-5.8 0-10.5 4.7-10.5 10.6c0 5.8 4.7 10.5 10.5 10.5c5.8 0 10.5-4.7 10.5-10.5" class="g0"/>
<path d="M900 938.3l.8 .2H898Z" class="g1"/>
<path d="M900.8 938.5H898l4.1 .2Zm-2.8 0l4.1 .2h-4.8Z" class="g1"/>
<path d="M902.1 938.7h-4.8l5.5 .1Zm-4.8 0l5.5 .1H896Z" class="g1"/>
<path d="M902.8 938.8H896l7.9 .4Zm-6.8 0l7.9 .4h-8.6Z" class="g1"/>
<path d="M903.9 939.2h-8.6l9.3 .6Zm-8.6 0l9.3 .6H894.4Z" class="g1"/>
<path d="M904.6 939.8H894.4l11.1 .5Zm-10.2 0l11.1 .5H893.4Z" class="g1"/>
<path d="M905.5 940.3H893.4l12.9 .6Zm-12.1 0l12.9 .6H892.7Z" class="g1"/>
<path d="M906.3 940.9H892.7l14.5 .7Zm-13.6 0l14.5 .7H892Z" class="g1"/>
<path d="M907.2 941.6H892l15.7 .7Zm-15.2 0l15.7 .7H891.2Z" class="g1"/>
<path d="M907.7 942.3H891.2l17.1 .8Zm-16.5 0l17.1 .8H890.7Z" class="g1"/>
<path d="M908.3 943.1H890.7l18.1 .9Zm-17.6 0l18.1 .9H890.1Z" class="g1"/>
<path d="M908.8 944H890.1l19.1 .9Zm-18.7 0l19.1 .9H889.8Z" class="g1"/>
<path d="M909.2 944.9H889.8l19.8 .9Zm-19.4 0l19.8 .9H889.4Z" class="g1"/>
<path d="M909.6 945.8H889.4l20.4 .9Zm-20.2 0l20.4 .9H889.2Z" class="g1"/>
<path d="M909.8 946.7H889.2l20.7 1.1Zm-20.6 0l20.7 1.1H889Z" class="g1"/>
<path d="M909.9 947.8H889l20.9 .9Zm-20.9 0l20.9 .9H889Z" class="g1"/>
<path d="M909.9 948.7H889l20.9 1.1Zm-20.9 0l20.9 1.1H889Z" class="g1"/>
<path d="M909.9 949.8H889l20.8 1Zm-20.9 0l20.8 1H889.2Z" class="g1"/>
<path d="M909.8 950.8H889.2l20.4 .9Zm-20.6 0l20.4 .9H889.4Z" class="g1"/>
<path d="M909.6 951.7H889.4l19.8 1.1Zm-20.2 0l19.8 1.1H889.8Z" class="g1"/>
<path d="M909.2 952.8H889.8l19 .9Zm-19.4 0l19 .9H890.1Z" class="g1"/>
<path d="M908.8 953.7H890.1l18.2 .7Zm-18.7 0l18.2 .7H890.7Z" class="g1"/>
<path d="M908.3 954.4H890.7l17 .9Zm-17.6 0l17 .9H891.2Z" class="g1"/>
<path d="M907.7 955.3H891.2l16 .8Zm-16.5 0l16 .8H892Z" class="g1"/>
<path d="M907.2 956.1H892l14.3 .7Zm-15.2 0l14.3 .7H892.7Z" class="g1"/>
<path d="M906.3 956.8H892.7l12.8 .6Zm-13.6 0l12.8 .6H893.4Z" class="g1"/>
<path d="M905.5 957.4H893.4l11.2 .5Zm-12.1 0l11.2 .5H894.4Z" class="g1"/>
<path d="M904.6 957.9H894.4l9.5 .4Zm-10.2 0l9.5 .4h-8.6Z" class="g1"/>
<path d="M903.9 958.3h-8.6l7.5 .4Zm-8.6 0l7.5 .4H896Z" class="g1"/>
<path d="M902.8 958.7H896l6.1 .3Zm-6.8 0l6.1 .3h-4.8Z" class="g1"/>
<path d="M897.3 959l.7 .2h2.8Zm.7 .2h2.8H900Z" class="g1"/>
<path d="M897.3 959h4.8l-1.3 .2Z" class="g1"/>
<path d="M899.5 948.7V1080m220.2-757.7V948.7M1250.9 1080V745.4H1435m7-50.2V661.6l-10.7 33.6l-10.4-33.6v33.6m58.8-11.2l-2.2 5.7l-2 2.7l-4.2 2.8h-4.2l-4.2-2.8l-2-2.7l-2.2-5.7V672.8l2.2-5.5l2-2.9l4.2-2.8h4.2l4.2 2.8l2 2.9l2.2 5.5m37.8 11.2l-2.2 5.7l-2 2.7l-4.2 2.8h-4.2l-4.3-2.8l-2-2.7l-2.2-5.7V672.8l2.2-5.5l2-2.9l4.3-2.8h4.2l4.2 2.8l2 2.9l2.2 5.5m31.5 5.7l4.1-2.9l2.2-2.8v-5.5l-2.2-2.9l-4.1-2.8h-12.6v33.6H1549l4.1-2.8l2.2-2.7V684l-2.2-2.7l-4.1-2.8h-12.6m3.3 66.9h106.5m-105.6 0l-105 52.5m-13.1-65.5l26.3 26.2m-26.3 0l26.3-26.2m275.5 52.5V706m0 78.9h-78.8V706h78.8M1677 658.9v20.9h-31.5V658.9m26.9-24.6v17.6h-24.7V634.3m13.5-6.9v52.4m55.8 0l7.3-10.5v-28m-34.1 38.5l4.8-3.5l9.7-13.9l2.6-10.5V627.4m9.7 52.4h-5m-21.8-38.5h34.1m-139.1-27l18.3-10.6l5.3-7l2.6-13.9m10.4 31.5l-18.3-10.6l-5.1-7l-2.8-13.9m15.8-7l10.4 10.5m-26.2-10.5l-10.4 10.5m0-17.6h36.6m-18.3-7v7m60.3 21.1v22.9l.4 1.6h4.6l.3-1.6v-5m-26.2 6.6l1.5-1.6l2.2-3.3l1.6-6.6v-13m20.9-3.5l-3.3-3.5l-3.5-5.9m3.5 5.9l-8.4 3.5h-11.9l6.8-7l3.3-4.7l1.8-5.9v-7m-11.9 7h23.6m-28.8 24.6l-1.8 10.4l-3.3 7l-2.7 3.6m6.6-28l-6.6-10.5m1.6-14.1l6.2 10.7m15.6 17.4v24.5m31.6-28v7m23.6-7h21.1m-21.1 10.4h21.1m-21.1 10.5h21.1V575.8h-21.1v31.4m-10.4-38.9h36.6m-18.3-6.6v14.1m18.3 38.5h-34.1v-35m76.1 10.5v22.9l.4 1.6h4.6l.3-1.6v-5m-26.2 6.6l1.5-1.6l2.2-3.3l1.4-6.6v-13m21.1-3.5l-3.5-3.5l-3.3-5.9m3.3 5.9l-8.4 3.5H1761l6.8-7l3.3-4.7l1.6-5.9v-7m-11.7 7h23.6m-28.9 24.6l-1.7 10.4l-3.3 7l-2.9 3.6m6.8-28l-6.8-10.5m1.8-14.1l6.1 10.7m15.7 17.4v24.5M468.8 322.3h77M349.7 303.6V270l-10.5 33.6L328.8 270v33.6m58.6-11.2l-2 5.7l-2.2 2.7l-4 2.8H375l-4.2-2.8l-2.2-2.7l-2.1-5.7V281.2l2.1-5.5l2.2-2.9L375 270h4.2l4 2.8l2.2 2.9l2 5.5m37.8 11.2l-2 5.7l-2 2.7l-4.2 2.8h-4.3l-4.2-2.8l-2.2-2.7l-2-5.7V281.2l2-5.5l2.2-2.9l4.2-2.8H417l4.2 2.8l2 2.9l2 5.5m31.5 5.7l4.3-2.7l2.2-3v-5.5l-2.2-2.9l-4.3-2.8H444.1v33.6h12.6l4.3-2.8l2.2-2.7v-5.7l-2.2-2.7l-4.3-2.8H444.1m56.8 16.7l-6.4-16.7H482m12.5 0l4.2-2.7l2.2-3v-5.5l-2.2-2.9l-4.2-2.8H482v33.6m-13.2 18.7l-105 52.6m-13-65.6L377 335.5m-26.2 0L377 309.3m-39.4 13h26.2M154.1 361.7h78.6m-78.6 0V283.1h78.6v78.6m-204-93.9L47 257.2l5.3-7l2.6-13.9m10.4 31.5L47 257.2l-5.1-7l-2.8-13.9m15.8-7l10.4 10.5M39.1 229.3L28.7 239.8m0-17.6H65.3m-18.3-7v7m60.3 21.1v22.9l.6 1.6h4.4l.3-1.6v-4.9m-26.2 6.5l1.5-1.6l2.2-3.3l1.6-6.6v-13m20.9-3.5l-3.3-3.5l-3.5-5.9m3.5 5.9l-8.4 3.5H89l6.8-7l3.4-4.7l1.7-5.9v-7m-11.9 7h23.6M83.8 246.8L82 257.2l-3.3 7L76 267.8m6.7-28L76 229.3m1.6-14.1l6.2 10.7m15.8 17.4v24.5m60.3 0l-5.3-3.6l-5.3-7l-5.1-10.4l-2.6-10.5M131 215.2h10.6v21.1l-2.8 10.5l-5.1 10.4l-5.3 7l-5.3 3.6m74 0l7.4-10.6V229.3m-34.1 38.5l4.9-3.6l9.7-14l2.4-10.4V215.2m9.7 52.6h-4.7m-22-38.5h34.1m28.2 93H337.6M672.3 948.7l-104.8 52.7m-13.2-65.7L580.5 962m-26.2 0l26.2-26.3m-39.2 13h26.2m-307.8-54l-2.2-1.9l-2.1-6.9v-5.4l2.1-6.9l2.2-1.9M275.4 884H269m8.4 8.8l-5.1-21.1L267 892.8m22 0h4.2m-2 0V871.7l-2.2 3.7m14.7 17.3l-.4-.4l-.4-.4l-.2-.7l.2-.7l.4-.4l.4-.4l.5 .4l.2 .4l.2 .7l-.2 .7l-.2 .4l-.5 .4m-1 3.6l.8-.7l.5-.9l.4-1.5l.4-2.2m18.8-12.1v7l1.1 3.5l1.1 1.6l2.1 1.8h2l2.2-1.8l1.1-1.6l.9-3.5v-7l-.9-3.5l-1.1-1.8l-2.2-1.9h-2l-2.1 1.9l-1.1 1.8l-1.1 3.5m22 13.9h4.3m-2.1 0V871.7l-2.2 3.7m14.9 17.3l-.6-.4l-.3-.4v-1.4l.3-.4l.6-.4l.4 .4l.3 .4v1.4l-.3 .4l-.4 .4m-1.1 3.6l.7-.7l.6-.9l.5-1.5l.2-2.2m26.2-8.6l2.2-1.9l1.1-1.6v-3.5l-1.1-1.8l-2.2-1.9h-6.2v21.1h6.2l2.2-1.8l1.1-1.6v-3.5l-1.1-1.9l-2.2-1.6h-6.2m21.1 10.4h4m-2 0V871.7l-2 3.7m14.6 19.3l2.1-1.9l2.2-6.9v-5.4l-2.2-6.9l-2.1-1.9M186.9 988.2h78.8m-78.8 0V909.5h78.8v78.7M72.1 855.8h6.6m-3.3 0V829.6L72.1 834m110 15.4v2.2l1.7 2l3.1 2.2h4.9l3.3-2.2l1.7-2v-4.4l-1.7-2.2l-3.3-2.2h-3.3m3.3 0l3.3-2.2l1.7-2.2V834l-1.7-2.2l-3.3-2.2h-4.9l-3.1 2.2l-1.7 2.2v2.2M91.9 855.8V829.6h9.7l3.3 2.2l1.7 2.2v4.4l-1.7 2.2l-3.3 2.2H91.9m31.2 2.2l3.1-4.4h3.3l3.3 4.4v10.8m-9.7-26.2v26.2m103.2-26.2l-5 26.2l-4.9-26.2l-4.8 26.2l-4.9-26.2M65 789.6H75.4m10.5 13.9H99.1M85.9 789.6H96.5M85.9 775.7H99.1M85.9 765v52.7m-23.5 0l5.1-3.5l5.3-7.2l2.6-6.9V765m-13 38.5l13-3.4m-13-24.4h13m52.4 42V793.1m10.7 21.1H141V800.1H114.8v14.1m5.3-31.5v10.4h15.6V782.7H120.1m-10.6 0l2.8-7h34.1l-2.8 7M138.5 765l-5.3 10.7m-5.4 0V765m-10.4 0l5.3 10.7m52.4 13.9v13.9h15.8V789.6H175.1m-2.5-3.5l2.5-1.1l4.1-4.7l1.3-3.5v-8.1m3.8 17.4h2.6l4-2.3V768.7H172.6M159.4 785h10.4m-10.4-16.3h10.4v34.8H159.4V768.7M188.3 807l5.2 10.7M177.7 807l5.3 10.7M167.3 807l5.3 10.7m-15.8 0l5.3-10.7m41.8-22h13.2m-13.2-16.3h13.2v34.8H203.9V768.7m34.3 13H223.7m0 16.3h14.5m-4 19.7h4v-49H223.7v32.6l-1.3 13.1l-2.7 3.3m68.2 0l-5.1-3.5l-5.4-7.2l-5.1-10.4l-2.7-10.5M259.1 765h10.5v21.1L267 796.6L261.7 807l-5.2 7.2l-5.3 3.5m74.1 0l7.3-10.7V779.2m-34.1 38.5l4.8-3.5l9.7-14.1l2.6-10.5V765m9.7 52.7h-5m-21.8-38.5h34.1m26.2 31.5h10.5m-5.1 0v-42l-5.4 7M627.4 277.9l-5.1 5.9l-2.4 2.9l-2.2 3l-1.8 3.1l-.8 1.4l-.7 1.7l-.5 1.5l-.4 1.6l-.4 1.5v4.9l.4 1.7l.4 1.6l.9 3.3l1.3 3.3l1.4 3.5l1.7 3.5l3.3 7l1.4 3.4l1.5 3.5l1.1 3.5l.7 3.3l.4 1.8l.2 1.7v1.8l-.2 1.7l-.4 3.3l-.7 3.5l-.9 3.3l-1.3 3.4l-1.5 3.3l-1.6 3.3l-1.8 3.4l-2.1 3.2l-4 6.8M554.1 277.9l-5.1 5.9l-2.6 2.9l-2 3l-1.9 3.1l-.9 1.4l-.5 1.7l-.6 1.5l-.3 1.6l-.4 1.5l-.2 1.6v1.7l.2 1.6l.2 1.7l.3 1.6l1 3.3l1.2 3.3l1.5 3.5l1.7 3.5l3.3 7l1.6 3.4l1.3 3.5l1.3 3.5l.7 3.3l.2 1.8l.2 1.7V350l-.4 3.3l-.7 3.5l-.9 3.3l-1.3 3.4l-1.7 3.3l-1.6 3.3l-1.9 3.4l-1.8 3.2l-4 6.8m731.1-105.6l-5.1 5.9l-2.4 2.9l-2.2 3l-1.8 3.1l-.8 1.4l-.7 1.7l-.6 1.5l-.3 1.6l-.4 1.5v4.9l.4 1.7l.2 1.6l1.1 3.3l1.2 3.3l1.5 3.5l1.5 3.5l3.5 7l1.4 3.4l1.5 3.5l1.1 3.5l.7 3.3l.4 1.8v1.7l.2 1.8l-.2 1.7l-.4 3.3l-.7 3.5l-.9 3.3l-1.3 3.4l-1.5 3.3l-1.6 3.3l-1.9 3.4l-2 3.2l-4 6.8M856.6 322.3h406.3m-132.8-.1c0-5.8-4.7-10.5-10.5-10.5c-5.8 0-10.6 4.7-10.6 10.5c0 5.8 4.8 10.5 10.6 10.5c5.8 0 10.5-4.7 10.5-10.5" class="g0"/>
<path d="M1120.2 311.8l.8 .2h-2.8Z" class="g1"/>
<path d="M1121 312h-2.8l4 .2Zm-2.8 0l4 .2h-4.7Z" class="g1"/>
<path d="M1122.2 312.2h-4.7l5.5 .2Zm-4.7 0l5.5 .2h-6.8Z" class="g1"/>
<path d="M1123 312.4h-6.8l7.9 .4Zm-6.8 0l7.9 .4h-8.6Z" class="g1"/>
<path d="M1124.1 312.8h-8.6l9.3 .5Zm-8.6 0l9.3 .5h-10.3Z" class="g1"/>
<path d="M1124.8 313.3h-10.3l11.2 .6Zm-10.3 0l11.2 .6h-12.1Z" class="g1"/>
<path d="M1125.7 313.9h-12.1l12.9 .5Zm-12.1 0l12.9 .5h-13.6Z" class="g1"/>
<path d="M1126.5 314.4h-13.6l14.5 .7Zm-13.6 0l14.5 .7h-15.2Z" class="g1"/>
<path d="M1127.4 315.1h-15.2l15.7 .8Zm-15.2 0l15.7 .8h-16.5Z" class="g1"/>
<path d="M1127.9 315.9h-16.5l17.1 .9Zm-16.5 0l17.1 .9h-17.6Z" class="g1"/>
<path d="M1128.5 316.8h-17.6l18.1 .7Zm-17.6 0l18.1 .7h-18.7Z" class="g1"/>
<path d="M1129 317.5h-18.7l19.1 1Zm-18.7 0l19.1 1H1110Z" class="g1"/>
<path d="M1129.4 318.5H1110l19.8 .9Zm-19.4 0l19.8 .9h-20.2Z" class="g1"/>
<path d="M1129.8 319.4h-20.2l20.3 1.1Zm-20.2 0l20.3 1.1h-20.5Z" class="g1"/>
<path d="M1129.9 320.5h-20.5l20.7 .9Zm-20.5 0l20.7 .9h-20.9Z" class="g1"/>
<path d="M1130.1 321.4h-20.9l20.9 .9Zm-20.9 0l20.9 .9h-20.9Z" class="g1"/>
<path d="M1130.1 322.3h-20.9l20.9 1.1Zm-20.9 0l20.9 1.1h-20.9Z" class="g1"/>
<path d="M1130.1 323.4h-20.9l20.7 .9Zm-20.9 0l20.7 .9h-20.5Z" class="g1"/>
<path d="M1129.9 324.3h-20.5l20.4 1.1Zm-20.5 0l20.4 1.1h-20.2Z" class="g1"/>
<path d="M1129.8 325.4h-20.2l19.8 .9Zm-20.2 0l19.8 .9H1110Z" class="g1"/>
<path d="M1129.4 326.3H1110l19 .9Zm-19.4 0l19 .9h-18.7Z" class="g1"/>
<path d="M1129 327.2h-18.7l18.2 .8Zm-18.7 0l18.2 .8h-17.6Z" class="g1"/>
<path d="M1128.5 328h-17.6l17 .9Zm-17.6 0l17 .9h-16.5Z" class="g1"/>
<path d="M1127.9 328.9h-16.5l16 .7Zm-16.5 0l16 .7h-15.2Z" class="g1"/>
<path d="M1127.4 329.6h-15.2l14.3 .8Zm-15.2 0l14.3 .8h-13.6Z" class="g1"/>
<path d="M1126.5 330.4h-13.6l12.8 .5Zm-13.6 0l12.8 .5h-12.1Z" class="g1"/>
<path d="M1125.7 330.9h-12.1l11.2 .6Zm-12.1 0l11.2 .6h-10.3Z" class="g1"/>
<path d="M1124.8 331.5h-10.3l9.6 .5Zm-10.3 0l9.6 .5h-8.6Z" class="g1"/>
<path d="M1124.1 332h-8.6l7.5 .4Zm-8.6 0l7.5 .4h-6.8Z" class="g1"/>
<path d="M1123 332.4h-6.8l6 .2Zm-6.8 0l6 .2h-4.7Z" class="g1"/>
<path d="M1117.5 332.6l.7 .1h2.8Zm.7 .1h2.8l-.8 .2Z" class="g1"/>
<path d="M1117.5 332.6h4.7l-1.2 .1Z" class="g1"/>
<path d="M517.8 909.3V875.8l-10.6 33.5l-10.5-33.5v33.5m58.9-11.2l-2.2 5.7l-2.1 2.8l-4.2 2.7h-4.2l-4.2-2.7l-2-2.8l-2.2-5.7V887l2.2-5.7l2-2.8l4.2-2.7h4.2l4.2 2.7l2.1 2.8l2.2 5.7m37.7 11.1l-2.2 5.7l-2 2.8l-4.2 2.7h-4.2l-4.2-2.7l-2.1-2.8l-2.2-5.7V887l2.2-5.7l2.1-2.8l4.2-2.7h4.2l4.2 2.7l2 2.8l2.2 5.7m31.4 5.7l4.2-3l2.2-2.7v-5.7l-2.2-2.8l-4.2-2.7H612.2v33.5h12.5l4.2-2.7l2.2-2.8v-5.7l-2.2-2.7l-4.2-2.7H612.2m46.2 0h10.5v16.6m0-11.2l-2.2 5.7l-2.1 2.8l-4.2 2.7h-4.2l-4.2-2.7l-2-2.8l-2.2-5.7V887l2.2-5.7l2-2.8l4.2-2.7h4.2l4.2 2.7l2.1 2.8l2.2 5.7M692 909.3h8.4m-4.2 0V875.8l-4.2 5.5" class="g0"/>

</g>
</svg>
